<?xml version="1.0" encoding="UTF-8"?>
<svg id="Layer_1" xmlns="http://www.w3.org/2000/svg" viewBox="0 0 1080 1080">
  <defs>
    <style>
      .cls-1 {
        fill: none;
        stroke: #000;
        stroke-linecap: round;
        stroke-linejoin: round;
        stroke-width: 7px;
      }
    </style>
  </defs>
  <path class="cls-1" d="M467.27,774.97v35.89M484.46,759.23v31.47M599.45,790.7h-65.9M514.39,790.7h-28.27M639.06,810.86h-55.58M565.1,810.86h-97.83M484.46,511.62v-43.23M484.46,447.32v-53.97M484.46,373.69v-97.7M465.48,524.77v-124.61M465.48,366.38v-110.54M467.27,556.89v90.17M467.27,675.38v83.86M484.46,536.43v94.7M484.46,660.68v98.55M639.06,565.83v-35.89M621.87,581.56v-31.47M639.06,810.86v-111.79M639.06,671.23v-83.86M621.87,790.7v-83.06M621.87,676.07v-98.56M639.06,291.73v-35.89M621.87,307.46v-31.47M506.88,275.99h64.98M588.14,275.99h32.06M465.48,255.84h54.81M541.23,255.83h97.83M639.06,509.8v-90.17M639.06,391.32v-83.86M621.87,532.29v-94.7M621.87,406.02v-98.55"/>
</svg>